<svg width="24" height="24" viewBox="0 0 24 24" fill="none" xmlns="http://www.w3.org/2000/svg">
<path d="M21.75 12.0001C21.747 14.383 20.8727 16.6826 19.2918 18.4657C17.7109 20.2488 15.5326 21.3922 13.1672 21.6807C13.1145 21.6867 13.0612 21.6814 13.0107 21.6653C12.9602 21.6491 12.9137 21.6224 12.8743 21.587C12.8349 21.5516 12.8034 21.5082 12.782 21.4597C12.7606 21.4112 12.7497 21.3587 12.75 21.3057V14.2501H15C15.1028 14.2503 15.2046 14.2294 15.299 14.1886C15.3934 14.1479 15.4784 14.0882 15.5487 14.0132C15.6191 13.9382 15.6732 13.8495 15.7078 13.7527C15.7425 13.6559 15.7568 13.553 15.75 13.4504C15.7335 13.2576 15.6445 13.0781 15.501 12.9482C15.3575 12.8183 15.1701 12.7475 14.9766 12.7501H12.75V10.5001C12.75 10.1023 12.9081 9.72074 13.1894 9.43944C13.4707 9.15813 13.8522 9.0001 14.25 9.0001H15.75C15.8528 9.00032 15.9546 8.97941 16.049 8.93865C16.1434 8.89789 16.2284 8.83816 16.2987 8.76316C16.3691 8.68817 16.4232 8.59951 16.4578 8.5027C16.4925 8.4059 16.5068 8.303 16.5 8.20041C16.4834 8.00722 16.3942 7.82752 16.2503 7.69755C16.1064 7.56757 15.9186 7.49701 15.7247 7.5001H14.25C13.4544 7.5001 12.6913 7.81617 12.1287 8.37878C11.5661 8.94139 11.25 9.70445 11.25 10.5001V12.7501H9.00002C8.8972 12.7499 8.79544 12.7708 8.70105 12.8115C8.60666 12.8523 8.52165 12.912 8.45132 12.987C8.38098 13.062 8.32682 13.1507 8.29219 13.2475C8.25756 13.3443 8.24321 13.4472 8.25002 13.5498C8.26661 13.743 8.35585 13.9227 8.49974 14.0527C8.64363 14.1826 8.83146 14.2532 9.02533 14.2501H11.25V21.3076C11.2503 21.3605 11.2395 21.4129 11.2181 21.4613C11.1967 21.5097 11.1653 21.5531 11.126 21.5885C11.0867 21.6239 11.0403 21.6506 10.99 21.6668C10.9396 21.683 10.8864 21.6884 10.8338 21.6826C8.40504 21.3868 6.17586 20.19 4.58746 18.329C2.99907 16.4681 2.16722 14.0786 2.25658 11.6335C2.44408 6.57104 6.54471 2.45541 11.611 2.25854C12.9226 2.20773 14.231 2.42199 15.458 2.8885C16.6849 3.35502 17.8051 4.0642 18.7517 4.97363C19.6982 5.88306 20.4516 6.97405 20.9668 8.18136C21.482 9.38866 21.7484 10.6875 21.75 12.0001Z" fill="white"/>
</svg>
