<svg width="151" height="36" viewBox="0 0 151 36" fill="none" xmlns="http://www.w3.org/2000/svg">
<path d="M27.5 22C27.5 22.2967 27.412 22.5867 27.2472 22.8334C27.0824 23.08 26.8481 23.2723 26.574 23.3858C26.2999 23.4993 25.9983 23.5291 25.7074 23.4712C25.4164 23.4133 25.1491 23.2704 24.9393 23.0607C24.7296 22.8509 24.5867 22.5836 24.5288 22.2926C24.4709 22.0017 24.5007 21.7001 24.6142 21.426C24.7277 21.1519 24.92 20.9176 25.1666 20.7528C25.4133 20.588 25.7033 20.5 26 20.5C26.3978 20.5 26.7794 20.658 27.0607 20.9393C27.342 21.2206 27.5 21.6022 27.5 22ZM26.9312 26.9112C26.7116 28.3273 25.9932 29.6182 24.9057 30.5513C23.8181 31.4844 22.433 31.9982 21 32H18C16.4092 31.9983 14.884 31.3657 13.7592 30.2408C12.6343 29.116 12.0017 27.5908 12 26V20.9363C10.0669 20.6927 8.28915 19.7521 7.00033 18.2909C5.71152 16.8297 5.00024 14.9484 5 13V7C5 6.73478 5.10536 6.48043 5.29289 6.29289C5.48043 6.10536 5.73478 6 6 6H9C9.26522 6 9.51957 6.10536 9.70711 6.29289C9.89464 6.48043 10 6.73478 10 7C10 7.26522 9.89464 7.51957 9.70711 7.70711C9.51957 7.89464 9.26522 8 9 8H7V13C6.99993 13.7947 7.15773 14.5815 7.46425 15.3147C7.77077 16.0479 8.2199 16.713 8.78555 17.2712C9.3512 17.8294 10.0221 18.2697 10.7593 18.5664C11.4965 18.8632 12.2854 19.0106 13.08 19C16.3438 18.9575 19 16.2188 19 12.8962V8H17C16.7348 8 16.4804 7.89464 16.2929 7.70711C16.1054 7.51957 16 7.26522 16 7C16 6.73478 16.1054 6.48043 16.2929 6.29289C16.4804 6.10536 16.7348 6 17 6H20C20.2652 6 20.5196 6.10536 20.7071 6.29289C20.8946 6.48043 21 6.73478 21 7V12.8962C21 17.0012 17.9338 20.4325 14 20.935V26C14 27.0609 14.4214 28.0783 15.1716 28.8284C15.9217 29.5786 16.9391 30 18 30H21C21.9084 29.9985 22.7893 29.6884 23.4983 29.1207C24.2074 28.5529 24.7025 27.7611 24.9025 26.875C23.6948 26.6037 22.6306 25.8941 21.916 24.8835C21.2013 23.8729 20.8869 22.6331 21.0336 21.404C21.1803 20.1749 21.7776 19.0439 22.7101 18.2299C23.6426 17.4159 24.8439 16.9767 26.0815 16.9972C27.3191 17.0178 28.5051 17.4968 29.41 18.3414C30.3149 19.186 30.8743 20.3362 30.98 21.5694C31.0858 22.8027 30.7303 24.0314 29.9824 25.0177C29.2345 26.004 28.1473 26.6778 26.9312 26.9088V26.9112ZM29 22C29 21.4067 28.8241 20.8266 28.4944 20.3333C28.1648 19.8399 27.6962 19.4554 27.1481 19.2284C26.5999 19.0013 25.9967 18.9419 25.4147 19.0576C24.8328 19.1734 24.2982 19.4591 23.8787 19.8787C23.4591 20.2982 23.1734 20.8328 23.0576 21.4147C22.9419 21.9967 23.0013 22.5999 23.2284 23.1481C23.4554 23.6962 23.8399 24.1648 24.3333 24.4944C24.8266 24.8241 25.4067 25 26 25C26.7956 25 27.5587 24.6839 28.1213 24.1213C28.6839 23.5587 29 22.7956 29 22Z" fill="#2F80ED"/>
<path d="M49.7216 9.54545H53.5909L58.7727 22.1932H58.9773L64.1591 9.54545H68.0284V27H64.9943V15.0085H64.8324L60.0085 26.9489H57.7415L52.9176 14.983H52.7557V27H49.7216V9.54545ZM76.4107 27.2557C75.0982 27.2557 73.9647 26.983 73.0101 26.4375C72.0613 25.8864 71.3311 25.108 70.8198 24.1023C70.3084 23.0909 70.0527 21.9006 70.0527 20.5312C70.0527 19.1847 70.3084 18.0028 70.8198 16.9858C71.3368 15.9631 72.0584 15.1676 72.9845 14.5994C73.9107 14.0256 74.9988 13.7386 76.2488 13.7386C77.0556 13.7386 77.8169 13.8693 78.5328 14.1307C79.2544 14.3864 79.8908 14.7841 80.4419 15.3239C80.9988 15.8636 81.4363 16.5511 81.7544 17.3864C82.0726 18.2159 82.2317 19.2045 82.2317 20.3523V21.2983H71.5016V19.2188H79.2743C79.2686 18.6278 79.1408 18.1023 78.8908 17.642C78.6408 17.1761 78.2914 16.8097 77.8425 16.5426C77.3993 16.2756 76.8823 16.142 76.2914 16.142C75.6607 16.142 75.1067 16.2955 74.6294 16.6023C74.1522 16.9034 73.78 17.3011 73.513 17.7955C73.2516 18.2841 73.1181 18.821 73.1124 19.4062V21.2216C73.1124 21.983 73.2516 22.6364 73.53 23.1818C73.8084 23.7216 74.1976 24.1364 74.6976 24.4261C75.1976 24.7102 75.7828 24.8523 76.4533 24.8523C76.9022 24.8523 77.3084 24.7898 77.672 24.6648C78.0357 24.5341 78.351 24.3438 78.6181 24.0938C78.8851 23.8438 79.0868 23.5341 79.2232 23.1648L82.1039 23.4886C81.922 24.25 81.5755 24.9148 81.0641 25.483C80.5584 26.0455 79.9107 26.483 79.1209 26.7955C78.3311 27.1023 77.4277 27.2557 76.4107 27.2557ZM88.9797 27.2301C87.9513 27.2301 87.0309 26.9659 86.2184 26.4375C85.4059 25.9091 84.7638 25.142 84.2922 24.1364C83.8207 23.1307 83.5849 21.9091 83.5849 20.4716C83.5849 19.017 83.8235 17.7898 84.3008 16.7898C84.7837 15.7841 85.4343 15.0256 86.2525 14.5142C87.0707 13.9972 87.9826 13.7386 88.9883 13.7386C89.7553 13.7386 90.386 13.8693 90.8803 14.1307C91.3746 14.3864 91.7667 14.696 92.0565 15.0597C92.3462 15.4176 92.5707 15.7557 92.7297 16.0739H92.8576V9.54545H95.9513V27H92.9172V24.9375H92.7297C92.5707 25.2557 92.3405 25.5937 92.0394 25.9517C91.7383 26.304 91.3405 26.6051 90.8462 26.8551C90.3519 27.1051 89.7297 27.2301 88.9797 27.2301ZM89.8405 24.6989C90.494 24.6989 91.0508 24.5227 91.511 24.1705C91.9712 23.8125 92.3207 23.3153 92.5593 22.679C92.7979 22.0426 92.9172 21.3011 92.9172 20.4545C92.9172 19.608 92.7979 18.8722 92.5593 18.2472C92.3263 17.6222 91.9797 17.1364 91.5195 16.7898C91.065 16.4432 90.5053 16.2699 89.8405 16.2699C89.153 16.2699 88.5792 16.4489 88.119 16.8068C87.6587 17.1648 87.3121 17.6591 87.0792 18.2898C86.8462 18.9205 86.7297 19.642 86.7297 20.4545C86.7297 21.2727 86.8462 22.0028 87.0792 22.6449C87.3178 23.2812 87.6672 23.7841 88.1275 24.1534C88.5934 24.517 89.1644 24.6989 89.8405 24.6989ZM98.6553 27V9.54545H110.008V12.196H101.817V16.9347H109.42V19.5852H101.817V24.3494H110.076V27H98.6553ZM116.144 27.2642C115.315 27.2642 114.567 27.1165 113.903 26.821C113.244 26.5199 112.721 26.0767 112.334 25.4915C111.954 24.9062 111.763 24.1847 111.763 23.3267C111.763 22.5881 111.9 21.9773 112.173 21.4943C112.445 21.0114 112.817 20.625 113.289 20.3352C113.761 20.0455 114.292 19.8267 114.883 19.679C115.479 19.5256 116.096 19.4148 116.732 19.3466C117.499 19.267 118.121 19.196 118.599 19.1335C119.076 19.0653 119.423 18.9631 119.638 18.8267C119.86 18.6847 119.971 18.4659 119.971 18.1705V18.1193C119.971 17.4773 119.781 16.9801 119.4 16.6278C119.019 16.2756 118.471 16.0994 117.755 16.0994C116.999 16.0994 116.4 16.2642 115.957 16.5938C115.519 16.9233 115.224 17.3125 115.07 17.7614L112.19 17.3523C112.417 16.5568 112.792 15.892 113.315 15.358C113.837 14.8182 114.477 14.4148 115.232 14.1477C115.988 13.875 116.823 13.7386 117.738 13.7386C118.369 13.7386 118.996 13.8125 119.621 13.9602C120.246 14.108 120.817 14.3523 121.334 14.6932C121.852 15.0284 122.266 15.4858 122.579 16.0653C122.897 16.6449 123.056 17.3693 123.056 18.2386V27H120.09V25.2017H119.988C119.8 25.5653 119.536 25.9062 119.195 26.2244C118.86 26.5369 118.437 26.7898 117.925 26.983C117.42 27.1705 116.826 27.2642 116.144 27.2642ZM116.945 24.9972C117.565 24.9972 118.102 24.875 118.556 24.6307C119.011 24.3807 119.36 24.0511 119.604 23.642C119.854 23.233 119.979 22.7869 119.979 22.304V20.7614C119.883 20.8409 119.718 20.9148 119.485 20.983C119.258 21.0511 119.002 21.1108 118.718 21.1619C118.434 21.2131 118.153 21.2585 117.874 21.2983C117.596 21.3381 117.354 21.3722 117.15 21.4006C116.69 21.4631 116.278 21.5653 115.914 21.7074C115.55 21.8494 115.263 22.0483 115.053 22.304C114.843 22.554 114.738 22.8778 114.738 23.2756C114.738 23.8438 114.945 24.2727 115.36 24.5625C115.775 24.8523 116.303 24.9972 116.945 24.9972ZM135.785 17.3693L132.972 17.6761C132.893 17.392 132.754 17.125 132.555 16.875C132.362 16.625 132.1 16.4233 131.771 16.2699C131.441 16.1165 131.038 16.0398 130.561 16.0398C129.918 16.0398 129.379 16.179 128.941 16.4574C128.509 16.7358 128.296 17.0966 128.302 17.5398C128.296 17.9205 128.436 18.2301 128.72 18.4688C129.009 18.7074 129.487 18.9034 130.151 19.0568L132.384 19.5341C133.623 19.8011 134.543 20.2244 135.146 20.804C135.754 21.3835 136.061 22.142 136.066 23.0795C136.061 23.9034 135.819 24.6307 135.342 25.2614C134.87 25.8864 134.214 26.375 133.373 26.7273C132.532 27.0795 131.566 27.2557 130.475 27.2557C128.873 27.2557 127.583 26.9205 126.606 26.25C125.629 25.5739 125.046 24.6335 124.859 23.429L127.867 23.1392C128.004 23.7301 128.293 24.1761 128.737 24.4773C129.18 24.7784 129.757 24.929 130.467 24.929C131.2 24.929 131.788 24.7784 132.231 24.4773C132.68 24.1761 132.904 23.804 132.904 23.3608C132.904 22.9858 132.759 22.6761 132.47 22.4318C132.186 22.1875 131.742 22 131.14 21.8693L128.907 21.4006C127.651 21.1392 126.722 20.6989 126.12 20.0795C125.518 19.4545 125.22 18.6648 125.225 17.7102C125.22 16.9034 125.438 16.2045 125.882 15.6136C126.33 15.017 126.953 14.5568 127.748 14.233C128.549 13.9034 129.472 13.7386 130.518 13.7386C132.052 13.7386 133.259 14.0653 134.14 14.7188C135.026 15.3722 135.575 16.2557 135.785 17.3693ZM143.686 27.2557C142.373 27.2557 141.24 26.983 140.285 26.4375C139.336 25.8864 138.606 25.108 138.095 24.1023C137.583 23.0909 137.328 21.9006 137.328 20.5312C137.328 19.1847 137.583 18.0028 138.095 16.9858C138.612 15.9631 139.333 15.1676 140.26 14.5994C141.186 14.0256 142.274 13.7386 143.524 13.7386C144.331 13.7386 145.092 13.8693 145.808 14.1307C146.529 14.3864 147.166 14.7841 147.717 15.3239C148.274 15.8636 148.711 16.5511 149.029 17.3864C149.348 18.2159 149.507 19.2045 149.507 20.3523V21.2983H138.777V19.2188H146.549C146.544 18.6278 146.416 18.1023 146.166 17.642C145.916 17.1761 145.566 16.8097 145.118 16.5426C144.674 16.2756 144.157 16.142 143.566 16.142C142.936 16.142 142.382 16.2955 141.904 16.6023C141.427 16.9034 141.055 17.3011 140.788 17.7955C140.527 18.2841 140.393 18.821 140.387 19.4062V21.2216C140.387 21.983 140.527 22.6364 140.805 23.1818C141.083 23.7216 141.473 24.1364 141.973 24.4261C142.473 24.7102 143.058 24.8523 143.728 24.8523C144.177 24.8523 144.583 24.7898 144.947 24.6648C145.311 24.5341 145.626 24.3438 145.893 24.0938C146.16 23.8438 146.362 23.5341 146.498 23.1648L149.379 23.4886C149.197 24.25 148.85 24.9148 148.339 25.483C147.833 26.0455 147.186 26.483 146.396 26.7955C145.606 27.1023 144.703 27.2557 143.686 27.2557Z" fill="#2F80ED"/>
</svg>
