<svg width="37" height="31" viewBox="0 0 37 31" fill="none" xmlns="http://www.w3.org/2000/svg">
<path d="M31.2483 7.5V6.875C31.2467 5.5207 30.8451 4.19705 30.0939 3.07015C29.3427 1.94326 28.2755 1.06331 27.0261 0.540745C25.7766 0.0181771 24.4007 -0.123735 23.0709 0.132816C21.7412 0.389368 20.5168 1.03295 19.5514 1.98281C19.4943 2.04037 19.4492 2.10866 19.4186 2.18375C19.388 2.25884 19.3726 2.33924 19.3733 2.42031V16.2828C19.3736 16.3955 19.4044 16.506 19.4623 16.6026C19.5203 16.6993 19.6033 16.7784 19.7026 16.8318C19.8018 16.8851 19.9137 16.9106 20.0262 16.9055C20.1388 16.9005 20.2479 16.8651 20.342 16.8031C21.5306 16.041 22.9114 15.6324 24.3233 15.625C24.6501 15.6189 24.9669 15.7383 25.2084 15.9586C25.4499 16.1789 25.5978 16.4834 25.6217 16.8094C25.6306 16.979 25.6049 17.1486 25.5461 17.3079C25.4873 17.4672 25.3966 17.6129 25.2797 17.736C25.1627 17.8591 25.0218 17.9571 24.8657 18.024C24.7096 18.0909 24.5416 18.1252 24.3717 18.125C23.0456 18.125 21.7739 18.6518 20.8362 19.5895C19.8985 20.5271 19.3717 21.7989 19.3717 23.125V28.4188C19.3716 28.5122 19.3925 28.6046 19.4327 28.689C19.473 28.7733 19.5317 28.8476 19.6045 28.9062C20.4916 29.6403 21.5359 30.16 22.6564 30.4248C23.777 30.6895 24.9434 30.6924 26.0652 30.433C27.187 30.1736 28.2339 29.659 29.1244 28.9291C30.0149 28.1993 30.7251 27.274 31.1999 26.225C31.2476 26.1195 31.2652 26.0028 31.2505 25.8879C31.2358 25.7731 31.1896 25.6645 31.1168 25.5744C31.044 25.4843 30.9477 25.4162 30.8385 25.3777C30.7292 25.3392 30.6115 25.3317 30.4983 25.3563C29.7192 25.5348 28.9225 25.625 28.1233 25.625H26.9155C26.593 25.629 26.2809 25.5109 26.0419 25.2944C25.8028 25.078 25.6544 24.7791 25.6264 24.4578C25.6151 24.2868 25.639 24.1153 25.6967 23.954C25.7544 23.7926 25.8447 23.6449 25.9619 23.5199C26.0791 23.3949 26.2208 23.2953 26.3781 23.2274C26.5355 23.1595 26.7051 23.1246 26.8764 23.125H28.1264C29.4324 23.127 30.7193 22.8117 31.8764 22.2062C33.2468 21.4926 34.3852 20.4029 35.1582 19.0652C35.9313 17.7274 36.3069 16.1969 36.2409 14.6533C36.175 13.1096 35.6703 11.6168 34.786 10.3498C33.9017 9.08283 32.6745 8.09425 31.2483 7.5ZM29.3733 13.125H28.7483C27.2565 13.125 25.8257 12.5324 24.7708 11.4775C23.7159 10.4226 23.1233 8.99184 23.1233 7.5V6.875C23.1233 6.54348 23.255 6.22554 23.4894 5.99112C23.7238 5.7567 24.0418 5.625 24.3733 5.625C24.7048 5.625 25.0228 5.7567 25.2572 5.99112C25.4916 6.22554 25.6233 6.54348 25.6233 6.875V7.5C25.6233 7.91038 25.7041 8.31674 25.8612 8.69589C26.0182 9.07503 26.2484 9.41953 26.5386 9.70971C27.1246 10.2958 27.9195 10.625 28.7483 10.625H29.3733C29.7048 10.625 30.0228 10.7567 30.2572 10.9911C30.4916 11.2255 30.6233 11.5435 30.6233 11.875C30.6233 12.2065 30.4916 12.5245 30.2572 12.7589C30.0228 12.9933 29.7048 13.125 29.3733 13.125ZM11.8733 5.52475e-07C10.0506 0.00206831 8.30308 0.72706 7.01422 2.01592C5.72535 3.30479 5.00036 5.05227 4.99829 6.875V7.5C3.57225 8.09457 2.34528 9.08341 1.46129 10.3506C0.577303 11.6177 0.0729324 13.1107 0.00732941 14.6543C-0.0582736 16.1979 0.317611 17.7283 1.0909 19.0659C1.86419 20.4035 3.00283 21.4928 4.37329 22.2062C5.53044 22.8117 6.81733 23.127 8.12329 23.125H9.33111C9.65413 23.1202 9.96697 23.238 10.2067 23.4545C10.4464 23.671 10.5953 23.9703 10.6233 24.2922C10.6346 24.4632 10.6107 24.6347 10.553 24.796C10.4953 24.9574 10.405 25.1051 10.2878 25.2301C10.1706 25.3551 10.0289 25.4547 9.87158 25.5226C9.71426 25.5905 9.54465 25.6254 9.37329 25.625H8.12329C7.32342 25.6253 6.5261 25.5346 5.74673 25.3547C5.63363 25.33 5.51589 25.3372 5.40665 25.3756C5.29741 25.4139 5.20096 25.4818 5.12805 25.5717C5.05514 25.6616 5.00864 25.77 4.99373 25.8848C4.97882 25.9996 4.99609 26.1163 5.04361 26.2219C5.51819 27.2711 6.22835 28.1968 7.11889 28.9269C8.00942 29.6571 9.05634 30.172 10.1783 30.4317C11.3002 30.6914 12.4669 30.6888 13.5877 30.4243C14.7084 30.1597 15.7531 29.6402 16.6405 28.9062C16.7133 28.8476 16.772 28.7733 16.8123 28.689C16.8526 28.6046 16.8734 28.5122 16.8733 28.4188V23.125C16.8733 21.7989 16.3465 20.5271 15.4088 19.5895C14.4711 18.6518 13.1994 18.125 11.8733 18.125C11.7035 18.1252 11.5354 18.0909 11.3793 18.024C11.2232 17.9571 11.0823 17.8591 10.9654 17.736C10.8484 17.6129 10.7577 17.4672 10.6989 17.3079C10.6401 17.1486 10.6144 16.979 10.6233 16.8094C10.6472 16.4831 10.7954 16.1784 11.0372 15.9581C11.2791 15.7377 11.5962 15.6185 11.9233 15.625C13.3352 15.6324 14.7159 16.041 15.9045 16.8031C15.9987 16.8651 16.1078 16.9005 16.2203 16.9055C16.3329 16.9106 16.4448 16.8851 16.544 16.8318C16.6433 16.7784 16.7263 16.6993 16.7843 16.6026C16.8422 16.506 16.873 16.3955 16.8733 16.2828V2.42031C16.8738 2.25625 16.8099 2.09855 16.6952 1.98125C15.4117 0.711289 13.6789 -0.000724021 11.8733 5.52475e-07ZM13.1233 7.5C13.1233 8.99184 12.5307 10.4226 11.4758 11.4775C10.4209 12.5324 8.99014 13.125 7.49829 13.125H6.87329C6.54177 13.125 6.22383 12.9933 5.98941 12.7589C5.75499 12.5245 5.62329 12.2065 5.62329 11.875C5.62329 11.5435 5.75499 11.2255 5.98941 10.9911C6.22383 10.7567 6.54177 10.625 6.87329 10.625H7.49829C7.90867 10.625 8.31504 10.5442 8.69418 10.3871C9.07332 10.2301 9.41782 9.99989 9.708 9.70971C9.99819 9.41953 10.2284 9.07503 10.3854 8.69589C10.5425 8.31674 10.6233 7.91038 10.6233 7.5V6.875C10.6233 6.54348 10.755 6.22554 10.9894 5.99112C11.2238 5.7567 11.5418 5.625 11.8733 5.625C12.2048 5.625 12.5228 5.7567 12.7572 5.99112C12.9916 6.22554 13.1233 6.54348 13.1233 6.875V7.5Z" fill="#2F80ED"/>
</svg>
