<svg width="30" height="32" viewBox="0 0 30 32" fill="none" xmlns="http://www.w3.org/2000/svg">
<path d="M27.5 0H2.5C1.83696 0 1.20107 0.263392 0.732233 0.732233C0.263392 1.20107 0 1.83696 0 2.5V11.25C0 19.4875 3.9875 24.4797 7.33281 27.2172C10.9359 30.1641 14.5203 31.1641 14.6766 31.2062C14.8914 31.2647 15.118 31.2647 15.3328 31.2062C15.4891 31.1641 19.0688 30.1641 22.6766 27.2172C26.0125 24.4797 30 19.4875 30 11.25V2.5C30 1.83696 29.7366 1.20107 29.2678 0.732233C28.7989 0.263392 28.163 0 27.5 0ZM22.1375 10.8844L13.3875 19.6344C13.2714 19.7506 13.1335 19.8428 12.9818 19.9057C12.8301 19.9686 12.6674 20.001 12.5031 20.001C12.3389 20.001 12.1762 19.9686 12.0244 19.9057C11.8727 19.8428 11.7348 19.7506 11.6187 19.6344L7.86875 15.8844C7.6342 15.6498 7.50243 15.3317 7.50243 15C7.50243 14.6683 7.6342 14.3502 7.86875 14.1156C8.1033 13.8811 8.42142 13.7493 8.75312 13.7493C9.08483 13.7493 9.40295 13.8811 9.6375 14.1156L12.5 16.9828L20.3656 9.11562C20.4818 8.99949 20.6196 8.90736 20.7714 8.84451C20.9231 8.78165 21.0858 8.7493 21.25 8.7493C21.4142 8.7493 21.5769 8.78165 21.7286 8.84451C21.8804 8.90736 22.0182 8.99949 22.1344 9.11562C22.2505 9.23176 22.3426 9.36964 22.4055 9.52138C22.4683 9.67312 22.5007 9.83576 22.5007 10C22.5007 10.1642 22.4683 10.3269 22.4055 10.4786C22.3426 10.6304 22.2505 10.7682 22.1344 10.8844H22.1375Z" fill="#2F80ED"/>
</svg>
