<svg width="33" height="33" viewBox="0 0 33 33" fill="none" xmlns="http://www.w3.org/2000/svg">
<path d="M16.25 0C13.0361 0 9.89429 0.953046 7.22199 2.73862C4.54969 4.52419 2.46689 7.06209 1.23696 10.0314C0.00704087 13.0007 -0.314763 16.268 0.312247 19.4202C0.939256 22.5724 2.48692 25.4679 4.75952 27.7405C7.03213 30.0131 9.9276 31.5607 13.0798 32.1878C16.232 32.8148 19.4993 32.493 22.4686 31.263C25.4379 30.0331 27.9758 27.9503 29.7614 25.278C31.547 22.6057 32.5 19.4639 32.5 16.25C32.4955 11.9416 30.7819 7.81102 27.7355 4.76454C24.689 1.71806 20.5584 0.00454972 16.25 0ZM19.375 20C19.4457 19.9998 19.5158 19.9882 19.5828 19.9656C19.8936 19.8616 20.2328 19.8839 20.5274 20.0275C20.822 20.1712 21.0483 20.4248 21.1577 20.7338C21.2671 21.0427 21.2508 21.3823 21.1123 21.6793C20.9738 21.9763 20.7242 22.2071 20.4172 22.3219C19.9458 22.4886 19.4412 22.5398 18.9459 22.4712C18.4506 22.4025 17.979 22.216 17.5707 21.9273C17.1624 21.6385 16.8294 21.2561 16.5996 20.8119C16.3698 20.3678 16.2499 19.8751 16.25 19.375C16.25 17.9922 16.9953 16.9953 17.6563 16.1141C18.2453 15.3328 18.75 14.6484 18.75 13.75C18.75 13.087 18.4866 12.4511 18.0178 11.9822C17.5489 11.5134 16.913 11.25 16.25 11.25C15.587 11.25 14.9511 11.5134 14.4822 11.9822C14.0134 12.4511 13.75 13.087 13.75 13.75C13.75 14.0815 13.6183 14.3995 13.3839 14.6339C13.1495 14.8683 12.8315 15 12.5 15C12.1685 15 11.8505 14.8683 11.6161 14.6339C11.3817 14.3995 11.25 14.0815 11.25 13.75C11.25 12.4239 11.7768 11.1521 12.7145 10.2145C13.6522 9.27678 14.9239 8.75 16.25 8.75C17.5761 8.75 18.8479 9.27678 19.7855 10.2145C20.7232 11.1521 21.25 12.4239 21.25 13.75C21.25 15.4797 20.3656 16.6609 19.6563 17.6109C19.0938 18.3625 18.75 18.85 18.75 19.375C18.75 19.5408 18.8159 19.6997 18.9331 19.8169C19.0503 19.9342 19.2092 20 19.375 20ZM25 15C24.6685 15 24.3505 14.8683 24.1161 14.6339C23.8817 14.3995 23.75 14.0815 23.75 13.75C23.75 11.7609 22.9598 9.85322 21.5533 8.4467C20.1468 7.04018 18.2391 6.25 16.25 6.25C14.2609 6.25 12.3532 7.04018 10.9467 8.4467C9.54018 9.85322 8.75001 11.7609 8.75001 13.75C8.75001 15.6094 9.79844 16.9531 10.9094 18.375C12.0031 19.7688 13.125 21.2109 13.125 23.125C13.1248 23.7405 13.3063 24.3424 13.6469 24.8551C13.9874 25.3678 14.4718 25.7685 15.0392 26.007C15.6066 26.2455 16.2318 26.3111 16.8364 26.1956C17.441 26.0801 17.998 25.7887 18.4375 25.3578C18.5531 25.2357 18.6921 25.1381 18.8462 25.0709C19.0003 25.0038 19.1665 24.9684 19.3346 24.9669C19.5027 24.9654 19.6694 24.9979 19.8247 25.0623C19.98 25.1268 20.1207 25.2219 20.2384 25.342C20.3561 25.4621 20.4483 25.6047 20.5096 25.7613C20.5709 25.9179 20.5999 26.0852 20.595 26.2533C20.5901 26.4213 20.5514 26.5867 20.4811 26.7394C20.4108 26.8922 20.3104 27.0291 20.1859 27.1422C19.3948 27.9171 18.3925 28.4412 17.3047 28.6488C16.2169 28.8565 15.0921 28.7384 14.0711 28.3094C13.0501 27.8805 12.1785 27.1597 11.5655 26.2374C10.9524 25.3151 10.6253 24.2324 10.625 23.125C10.625 22.0719 9.84376 21.0719 8.93907 19.9141C7.74063 18.3797 6.25001 16.4703 6.25001 13.75C6.25001 11.0978 7.30358 8.5543 9.17894 6.67893C11.0543 4.80357 13.5978 3.75 16.25 3.75C18.9022 3.75 21.4457 4.80357 23.3211 6.67893C25.1964 8.5543 26.25 11.0978 26.25 13.75C26.25 14.0815 26.1183 14.3995 25.8839 14.6339C25.6495 14.8683 25.3315 15 25 15Z" fill="#2F80ED"/>
</svg>
