<svg width="28" height="33" viewBox="0 0 28 33" fill="none" xmlns="http://www.w3.org/2000/svg">
<path d="M27.1344 6.61562L20.8844 0.365625C20.7682 0.249582 20.6303 0.157565 20.4786 0.0948299C20.3268 0.0320948 20.1642 -0.000128732 20 3.86498e-07H7.5C6.83696 3.86498e-07 6.20107 0.263392 5.73223 0.732233C5.26339 1.20107 5 1.83696 5 2.5V5H2.5C1.83696 5 1.20107 5.26339 0.732233 5.73223C0.263392 6.20107 0 6.83696 0 7.5V30C0 30.663 0.263392 31.2989 0.732233 31.7678C1.20107 32.2366 1.83696 32.5 2.5 32.5H20C20.663 32.5 21.2989 32.2366 21.7678 31.7678C22.2366 31.2989 22.5 30.663 22.5 30V27.5H25C25.663 27.5 26.2989 27.2366 26.7678 26.7678C27.2366 26.2989 27.5 25.663 27.5 25V7.5C27.5001 7.3358 27.4679 7.17318 27.4052 7.02144C27.3424 6.86969 27.2504 6.7318 27.1344 6.61562ZM15 26.25H7.5C7.16848 26.25 6.85054 26.1183 6.61612 25.8839C6.3817 25.6495 6.25 25.3315 6.25 25C6.25 24.6685 6.3817 24.3505 6.61612 24.1161C6.85054 23.8817 7.16848 23.75 7.5 23.75H15C15.3315 23.75 15.6495 23.8817 15.8839 24.1161C16.1183 24.3505 16.25 24.6685 16.25 25C16.25 25.3315 16.1183 25.6495 15.8839 25.8839C15.6495 26.1183 15.3315 26.25 15 26.25ZM15 21.25H7.5C7.16848 21.25 6.85054 21.1183 6.61612 20.8839C6.3817 20.6495 6.25 20.3315 6.25 20C6.25 19.6685 6.3817 19.3505 6.61612 19.1161C6.85054 18.8817 7.16848 18.75 7.5 18.75H15C15.3315 18.75 15.6495 18.8817 15.8839 19.1161C16.1183 19.3505 16.25 19.6685 16.25 20C16.25 20.3315 16.1183 20.6495 15.8839 20.8839C15.6495 21.1183 15.3315 21.25 15 21.25ZM25 25H22.5V12.5C22.5001 12.3358 22.4679 12.1732 22.4052 12.0214C22.3424 11.8697 22.2504 11.7318 22.1344 11.6156L15.8844 5.36563C15.7682 5.24958 15.6303 5.15757 15.4786 5.09483C15.3268 5.03209 15.1642 4.99987 15 5H7.5V2.5H19.4828L25 8.01719V25Z" fill="#2F80ED"/>
</svg>
