<svg width="33" height="28" viewBox="0 0 33 28" fill="none" xmlns="http://www.w3.org/2000/svg">
<path d="M28.125 7.5C28.125 7.87084 28.015 8.23335 27.809 8.54169C27.603 8.85004 27.3101 9.09036 26.9675 9.23227C26.6249 9.37419 26.2479 9.41132 25.8842 9.33897C25.5205 9.26663 25.1864 9.08805 24.9242 8.82583C24.662 8.5636 24.4834 8.22951 24.411 7.8658C24.3387 7.50208 24.3758 7.12508 24.5177 6.78247C24.6596 6.43986 24.9 6.14702 25.2083 5.94099C25.5166 5.73497 25.8792 5.625 26.25 5.625C26.7473 5.625 27.2242 5.82254 27.5758 6.17417C27.9275 6.52581 28.125 7.00272 28.125 7.5ZM26.25 18.125C25.8792 18.125 25.5166 18.235 25.2083 18.441C24.9 18.647 24.6596 18.9399 24.5177 19.2825C24.3758 19.6251 24.3387 20.0021 24.411 20.3658C24.4834 20.7295 24.662 21.0636 24.9242 21.3258C25.1864 21.588 25.5205 21.7666 25.8842 21.839C26.2479 21.9113 26.6249 21.8742 26.9675 21.7323C27.3101 21.5904 27.603 21.35 27.809 21.0417C28.015 20.7334 28.125 20.3708 28.125 20C28.125 19.5027 27.9275 19.0258 27.5758 18.6742C27.2242 18.3225 26.7473 18.125 26.25 18.125ZM11.25 10C10.7555 10 10.2722 10.1466 9.86107 10.4213C9.44995 10.696 9.12952 11.0865 8.9403 11.5433C8.75108 12.0001 8.70157 12.5028 8.79804 12.9877C8.8945 13.4727 9.1326 13.9181 9.48223 14.2678C9.83186 14.6174 10.2773 14.8555 10.7623 14.952C11.2472 15.0484 11.7499 14.9989 12.2067 14.8097C12.6635 14.6205 13.054 14.3 13.3287 13.8889C13.6034 13.4778 13.75 12.9945 13.75 12.5C13.75 11.837 13.4866 11.2011 13.0178 10.7322C12.5489 10.2634 11.913 10 11.25 10ZM32.5 2.5V25C32.5 25.663 32.2366 26.2989 31.7678 26.7678C31.2989 27.2366 30.663 27.5 30 27.5H2.5C1.83696 27.5 1.20107 27.2366 0.732233 26.7678C0.263392 26.2989 0 25.663 0 25V2.5C0 1.83696 0.263392 1.20107 0.732233 0.732233C1.20107 0.263392 1.83696 0 2.5 0H30C30.663 0 31.2989 0.263392 31.7678 0.732233C32.2366 1.20107 32.5 1.83696 32.5 2.5ZM22.5 12.5H30V2.5H22.5V12.5ZM17.4609 19.6875C17.0564 18.1772 16.0973 16.8749 14.775 16.0406C15.4772 15.3426 15.9564 14.4517 16.1517 13.481C16.3471 12.5103 16.2498 11.5034 15.8722 10.588C15.4947 9.67268 14.8538 8.89003 14.0309 8.33931C13.2081 7.78858 12.2402 7.49459 11.25 7.49459C10.2598 7.49459 9.29195 7.78858 8.46906 8.33931C7.64617 8.89003 7.00532 9.67268 6.62776 10.588C6.2502 11.5034 6.15292 12.5103 6.34826 13.481C6.5436 14.4517 7.02276 15.3426 7.725 16.0406C6.40352 16.8759 5.44469 18.1777 5.03906 19.6875C4.95618 20.0087 5.00428 20.3496 5.17277 20.6353C5.34126 20.921 5.61634 21.1281 5.9375 21.2109C6.25866 21.2938 6.59959 21.2457 6.88529 21.0772C7.17099 20.9087 7.37806 20.6337 7.46094 20.3125C7.87344 18.7109 9.50156 17.5 11.25 17.5C12.9984 17.5 14.6281 18.7078 15.0391 20.3125C15.1219 20.6337 15.329 20.9087 15.6147 21.0772C15.9004 21.2457 16.2413 21.2938 16.5625 21.2109C16.8837 21.1281 17.1587 20.921 17.3272 20.6353C17.4957 20.3496 17.5438 20.0087 17.4609 19.6875ZM30 25V15H22.5V25H30Z" fill="#2F80ED"/>
</svg>
